<?xml version="1.0" standalone="no"?>
<!DOCTYPE svg PUBLIC "-//W3C//DTD SVG 20010904//EN"
 "http://www.w3.org/TR/2001/REC-SVG-20010904/DTD/svg10.dtd">
<svg version="1.0" xmlns="http://www.w3.org/2000/svg"
 width="600.000000pt" height="600.000000pt" viewBox="0 0 600.000000 600.000000"
 preserveAspectRatio="xMidYMid meet">
<metadata>
Created by potrace 1.15, written by Peter Selinger 2001-2017
</metadata>
<g transform="translate(0.000000,600.000000) scale(0.100000,-0.100000)"
fill="#000000" stroke="none">
<path d="M2025 5680 c-166 -25 -244 -43 -380 -86 -532 -171 -984 -564 -1230
-1069 -35 -71 -73 -157 -84 -190 -11 -33 -29 -85 -40 -116 -42 -122 -83 -358
-88 -510 l-6 -146 31 -34 c26 -29 37 -34 77 -34 40 0 51 5 75 31 25 28 28 41
34 130 17 237 46 395 101 554 202 580 675 1031 1255 1198 165 47 236 59 445
71 127 7 128 7 156 39 40 45 40 99 0 144 -29 32 -31 33 -123 35 -51 1 -151 -7
-223 -17z"/>
<path d="M3654 5684 c-61 -30 -73 -112 -25 -166 28 -32 29 -32 156 -39 222
-13 288 -24 468 -80 455 -142 829 -436 1068 -839 152 -258 240 -546 255 -835
8 -142 17 -177 56 -210 44 -37 100 -30 142 16 l29 32 -6 146 c-12 311 -117
666 -278 941 -104 177 -204 304 -362 456 -198 192 -365 304 -640 429 -43 19
-81 35 -86 35 -4 0 -48 13 -97 30 -109 36 -199 55 -374 80 -164 24 -264 25
-306 4z"/>
<path d="M2165 4993 c-22 -2 -100 -18 -174 -34 -273 -61 -509 -194 -701 -396
-139 -146 -247 -319 -303 -483 -57 -169 -72 -236 -82 -377 -10 -126 -3 -157
43 -188 43 -29 73 -31 111 -9 43 26 52 49 62 168 15 184 46 300 117 441 110
221 251 375 452 496 158 96 305 142 500 159 70 6 139 18 156 27 61 29 73 111
25 165 -27 30 -34 32 -97 34 -38 1 -87 0 -109 -3z"/>
<path d="M3664 4990 c-80 -32 -84 -169 -7 -198 15 -5 84 -15 153 -22 161 -15
231 -32 360 -89 130 -58 223 -118 321 -207 127 -115 192 -202 271 -357 65
-129 117 -329 118 -447 0 -93 15 -137 53 -160 43 -26 75 -25 119 5 28 19 38
33 43 66 17 98 -27 358 -87 514 -23 60 -107 225 -139 272 -205 302 -488 500
-833 585 -179 44 -322 58 -372 38z"/>
<path d="M2850 4294 c-143 -38 -285 -141 -373 -271 -50 -74 -103 -208 -113
-285 -6 -47 -9 -49 -64 -79 -142 -75 -330 -239 -444 -384 -204 -261 -305 -513
-356 -885 -5 -36 -10 -335 -10 -665 0 -646 -2 -671 -53 -756 -51 -88 -155
-158 -246 -166 -66 -6 -100 -22 -116 -54 -29 -55 -12 -123 39 -152 16 -9 193
-13 690 -17 l670 -5 12 -49 c52 -205 245 -380 445 -405 204 -26 388 63 513
247 32 49 76 162 76 198 0 12 102 14 660 14 724 0 714 -1 744 59 20 38 20 74
1 110 -16 32 -50 48 -118 54 -67 7 -168 60 -203 108 -16 21 -32 39 -36 39 -4
0 -17 26 -30 58 l-23 57 -6 675 c-4 444 -10 689 -17 715 -6 22 -20 89 -32 149
-24 127 -90 306 -157 429 -140 255 -370 495 -599 623 -59 33 -62 37 -69 81
-10 68 -56 193 -96 258 -84 141 -229 253 -379 294 -89 25 -227 27 -310 5z"/>
</g>
</svg>
